<?xml version="1.0" encoding="UTF-8"?>
<svg width="2791px" height="1371px" viewBox="0 0 2791 1371" version="1.1" xmlns="http://www.w3.org/2000/svg" xmlns:xlink="http://www.w3.org/1999/xlink">
    <title>Artboard</title>
    <g id="Artboard" stroke="none" stroke-width="1" fill="none" fill-rule="evenodd">
        <path d="M94.6567368,13.2275237 L39.5368945,65.9777264 C36.3448394,69.0325529 36.2335936,74.096651 39.2884201,77.2887061 C39.3384643,77.3409984 39.3892159,77.3926092 39.4406609,77.4435241 L94.6541858,132.088176 C97.7879538,135.189656 102.840352,135.170961 105.951083,132.046375 L159.363551,78.3959978 C162.471004,75.274704 162.471004,70.2287514 159.363551,67.1074577 L105.8574,13.3629807 C102.783583,10.2754722 97.8043226,10.2152547 94.6567368,13.2275237 Z" id="Path-90" fill="#96C1E7"></path>
        <path d="M2473.65674,1214.22752 L2418.53689,1266.97773 C2415.34484,1270.03255 2415.23359,1275.09665 2418.28842,1278.28871 C2418.33846,1278.341 2418.38922,1278.39261 2418.44066,1278.44352 L2473.65419,1333.08818 C2476.78795,1336.18966 2481.84035,1336.17096 2484.95108,1333.04637 L2538.36355,1279.396 C2541.471,1276.2747 2541.471,1271.22875 2538.36355,1268.10746 L2484.8574,1214.36298 C2481.78358,1211.27547 2476.80432,1211.21525 2473.65674,1214.22752 Z" id="Path-90" fill="#B0FF88"></path>
        <path d="M2457.94687,61.1221702 L2439.24477,79.0202527 C2436.05272,82.0750792 2435.94147,87.1391772 2438.9963,90.3312323 C2439.04634,90.3835247 2439.09709,90.4351354 2439.14854,90.4860504 L2457.94432,109.088176 C2461.07809,112.189656 2466.13049,112.170961 2469.24122,109.046375 L2487.36355,90.843321 C2490.471,87.7220273 2490.471,82.6760747 2487.36355,79.554781 L2469.14753,61.2576272 C2466.07372,58.1701187 2461.09446,58.1099013 2457.94687,61.1221702 Z" id="Path-90" fill="#58DDFF"></path>
        <path d="M440.986782,1168.12217 L413.038295,1194.86913 C409.84624,1197.92396 409.734995,1202.98806 412.789821,1206.18011 C412.839865,1206.2324 412.890617,1206.28401 412.942062,1206.33493 L440.984231,1234.08818 C444.117999,1237.18966 449.170397,1237.17096 452.281127,1234.04637 L479.363551,1206.84332 C482.471004,1203.72203 482.471004,1198.67607 479.363551,1195.55478 L452.187445,1168.25763 C449.113628,1165.17012 444.134367,1165.1099 440.986782,1168.12217 Z" id="Path-90" fill="#FFBDFC"></path>
        <path d="M2704.9114,778.12217 L2694.42831,788.154582 C2691.23625,791.209409 2691.12501,796.273507 2694.17983,799.465562 C2694.22988,799.517854 2694.28063,799.569465 2694.33208,799.62038 L2704.90885,810.088176 C2708.04261,813.189656 2713.09501,813.170961 2716.20574,810.046375 L2726.36355,799.843321 C2729.471,796.722027 2729.471,791.676075 2726.36355,788.554781 L2716.11206,778.257627 C2713.03824,775.170119 2708.05898,775.109901 2704.9114,778.12217 Z" id="Path-90" fill="#BDFFF6"></path>
        <path d="M202.485381,184.227524 L174.536894,210.974485 C171.344839,214.029312 171.233594,219.09341 174.28842,222.285465 C174.338464,222.337757 174.389216,222.389368 174.440661,222.440283 L202.48283,250.193529 C205.616598,253.295009 210.668996,253.276315 213.779726,250.151728 L240.862151,222.948674 C243.969603,219.827381 243.969603,214.781428 240.862151,211.660134 L213.686044,184.362981 C210.612227,181.275472 205.632966,181.215255 202.485381,184.227524 Z" id="Path-90" fill="#F3D38F"></path>
        <path d="M821.485381,388.227524 L793.536894,414.974485 C790.344839,418.029312 790.233594,423.09341 793.28842,426.285465 C793.338464,426.337757 793.389216,426.389368 793.440661,426.440283 L821.48283,454.193529 C824.616598,457.295009 829.668996,457.276315 832.779726,454.151728 L859.862151,426.948674 C862.969603,423.827381 862.969603,418.781428 859.862151,415.660134 L832.686044,388.362981 C829.612227,385.275472 824.632966,385.215255 821.485381,388.227524 Z" id="Path-90" fill="#FAAEAE"></path>
    </g>
</svg>