<?xml version="1.0" encoding="UTF-8"?>
<svg width="200px" height="200px" viewBox="0 0 200 200" version="1.1" xmlns="http://www.w3.org/2000/svg" xmlns:xlink="http://www.w3.org/1999/xlink">
    <title>Group 14</title>
    <g id="Page-2" stroke="none" stroke-width="1" fill="none" fill-rule="evenodd">
        <g id="Group-14">
            <g id="Group-5">
                <path d="M24.457542,84.5746812 L32.6807966,101.012253 C44.8180496,83.4272964 54.6685871,70.8165501 62.232409,63.1800143 C69.796231,55.5434785 82.3878534,45.4963201 100.007276,33.0385392 L84.4213584,24.9047109 C68.8094528,36.5694729 57.4978336,45.847953 50.4865009,52.7401513 C43.4751682,59.6323495 34.7988486,70.2438595 24.457542,84.5746812 Z" id="Path-28" fill="#29C6A4"></path>
                <path d="M15.3767226,101.012253 L24.457542,84.5746812 C12.3328072,55.6338814 11.8242689,35.2785244 22.931927,23.5086103 C34.0395852,11.7386962 54.5360623,12.2040631 84.4213584,24.9047109 L99.4885472,15.7311403 C58.7048862,-3.49242686 29.6952504,-4.31756788 12.4596399,13.2557173 C-4.77597059,30.8290024 -3.80360971,60.081181 15.3767226,101.012253 Z" id="Path-42" fill="#1BC7A4"></path>
                <path d="M99.4885472,15.7311403 L115.263078,24.9047109 C144.583754,12.4804696 165.218707,12.4804696 177.167937,24.9047109 C189.117168,37.3289523 188.452775,57.3839562 175.174757,85.0697226 L184.279903,101.012253 C203.379841,60.1516336 204.246601,30.7385766 186.880184,12.7730822 C169.513767,-5.19241229 140.383221,-4.20639291 99.4885472,15.7311403 Z" id="Path-43" fill="#FFC814"></path>
                <path d="M100.007276,33.0385392 L115.263078,24.9047109 C130.417092,37.2026408 141.791795,47.1653605 149.387188,54.7928701 C156.982581,62.4203798 165.578437,72.5126639 175.174757,85.0697226 L166.774656,101.012253 C155.107901,83.5728069 145.380021,70.8882165 137.591016,62.958482 C129.802011,55.0287476 117.274098,45.0554333 100.007276,33.0385392 Z" id="Path-44" fill="#FFC814"></path>
                <path d="M32.6807966,101.012253 C39.9595535,113.103324 49.2868748,124.788593 60.6627606,136.06806 C72.0386463,147.347527 84.9805752,157.742761 99.4885472,167.253762 L84.597827,175.820773 C70.7657009,165.329446 59.1850594,155.391817 49.8559023,146.007883 C40.5267452,136.62395 32.0606251,126.397114 24.457542,115.327374 L32.6807966,101.012253 Z" id="Path-46" fill="#5463FF"></path>
                <path d="M15.3767226,101.012253 L24.457542,115.327374 C12.9446444,145.796792 12.4527361,166.326953 22.981817,176.917855 C33.510898,187.508758 54.049568,187.143064 84.597827,175.820773 L100.007276,185.341177 C81.5398707,194.992545 64.1455551,199.818229 47.8243294,199.818229 C31.5031037,199.818229 18.765172,194.072886 9.61053442,182.582201 C2.22698173,175.160555 -0.902110597,163.489863 0.223257434,147.570124 C1.34862547,131.650384 6.39978051,116.131094 15.3767226,101.012253 Z" id="Path-47" fill="#5463FF"></path>
                <polygon id="Path-50" fill="#0652AA" points="15.3767226 101.012253 24.457542 115.327374 32.6807966 101.012253 24.457542 84.5746812"></polygon>
                <polygon id="Path-51" fill="#469E16" points="84.4213584 24.9047109 100.007276 33.0385392 115.263078 24.9047109 99.4885472 15.7311403"></polygon>
                <polygon id="Path-52" fill="#FF3423" points="175.174757 85.0697226 166.774656 101.012253 175.174757 115.327374 184.279903 101.012253"></polygon>
                <polygon id="Path-53" fill="#5F2299" points="84.597827 175.820773 99.4885472 167.253762 115.026581 175.820773 100.007276 185.341177"></polygon>
                <path d="M99.4885472,167.253762 C117.147215,154.973408 129.761583,145.106958 137.331652,137.654413 C144.901721,130.201868 154.716055,117.987815 166.774656,101.012253 L175.174757,115.327374 C167.864233,126.160757 160.297563,135.511306 152.474747,143.379021 C144.651931,151.246736 132.169209,162.060654 115.026581,175.820773 L99.4885472,167.253762 Z" id="Path-54" fill="#FF5795"></path>
                <path d="M115.026581,175.820773 C144.250388,188.203155 164.858346,188.719526 176.850455,177.369887 C188.842564,166.020248 188.283998,145.33941 175.174757,115.327374 L184.279903,101.012253 C203.573989,137.686438 205.107605,165.796079 188.880751,185.341177 C172.653897,204.886274 142.964382,204.886274 99.812204,185.341177 L115.026581,175.820773 Z" id="Path-56" fill="#FF5B96"></path>
            </g>
            <g id="Group-15" transform="translate(66.520853, 44.908290)">
                <polygon id="Path" fill="#273684" points="33.4864228 0 0 54.347487 32.9676939 74.3644453 66.9728457 54.347487"></polygon>
                <polygon id="Path-2" fill="#273684" points="0 63.949531 32.9676939 82.542111 66.9728457 63.949531 33.4864228 110.447674"></polygon>
                <polygon id="Path-60" fill="#172466" points="33.4864228 0.330719316 32.9676939 74.3644453 -7.43547953e-15 54.347487"></polygon>
                <polygon id="Path-61" fill="#172466" points="0 63.949531 33.4864228 110.447674 33.2913507 82.3628316"></polygon>
            </g>
        </g>
    </g>
</svg>