<?xml version="1.0" encoding="UTF-8"?>
<svg width="200px" height="165px" viewBox="0 0 200 165" version="1.1" xmlns="http://www.w3.org/2000/svg" xmlns:xlink="http://www.w3.org/1999/xlink">
    <title>Group 17</title>
    <defs>
        <linearGradient x1="17.2624596%" y1="18.4991602%" x2="95.2264628%" y2="76.0396103%" id="linearGradient-1">
            <stop stop-color="#C774FA" offset="0%"></stop>
            <stop stop-color="#9F4BF9" offset="43.3397621%"></stop>
            <stop stop-color="#9540F3" offset="100%"></stop>
        </linearGradient>
    </defs>
    <g id="Page-2" stroke="none" stroke-width="1" fill="none" fill-rule="evenodd">
        <g id="Group-17">
            <path d="M102.077436,97.1550014 L82.1130121,113.195386 L85.3935953,135.517319 L90.5219183,141.597199 L135.573742,165 L149.744438,163.951446 L193.667147,133.738337 L196.862745,120.932908 L188.942184,64.5380098 L182.219795,56.3374073 L130.000877,35.7504099 L121.078854,38.0048287 L85.3935953,68.0053426 L53.1477362,95.6220279 L46.8670508,96.2873615 L21.850215,82.2824452 L20.3563427,78.2214628 L18.0532598,48.204621 L20.3563427,44.6828845 L41.3908084,25.2661122 L72.250691,38.0048287 L75.6575491,63.0726889 L94.6670571,46.6757459 C93.9046262,34.9718606 93.1339594,27.835316 92.3550566,25.2661122 C91.5761538,22.6969083 89.4946913,20.4257296 86.110669,18.4525762 L43.9456136,1.32207067 C41.961808,0.516104881 39.6904326,0.937049956 38.1271861,2.40037696 L2.49993339,35.7504099 L2.49993339,35.7504099 L0,42.834053 L5.08548183,91.2539932 L8.82752487,97.9202598 L50.4834993,120.061615 L58.5004811,118.250389 L125.768717,63.6684969 L134.106997,63.0726889 L164.429149,77.6334089 L170.489061,110.537828 L167.640174,120.061615 L140.834098,139.608205 L135.573742,139.608205 L105.932632,124.605128 L103.264999,120.061615 L102.077436,97.1550014 Z" id="Path-64" fill="url(#linearGradient-1)"></path>
            <polygon id="Path-65" fill="#571FCD" points="56.9138545 31.6582922 37.5051813 49.6593549 40.1713925 80.8125492 58.8235294 91.4094613 53.6281215 95.9803992 47.2922505 96.6428571 22.0851173 82.9503207 20.5486043 78.6550417 18.0392157 46.8224599 41.7678907 25.9285714"></polygon>
            <path d="M86.4605116,18.8571429 L102.060906,25.7152729 L105.366404,30.1067648 L107.45098,50.1199346 L90.1346791,65.2142857 L76.0784314,63.7692909 L94.9587503,47.2650312 C94.1134362,38.3808548 93.0487548,31.7926092 91.7647059,27.5002941 C90.480657,23.2079791 88.7125923,20.3269287 86.4605116,18.8571429 Z" id="Path-66" fill="#3700BB"></path>
            <path d="M58.8235294,118.642857 C61.7112827,118.226858 64.0365386,117.81024 65.799297,117.393003 C67.5620553,116.975767 70.2339857,116.209575 73.8150881,115.094428 L137.254902,65.0974583 C136.724449,64.2369445 135.842551,63.7596503 134.609205,63.6655757 C133.37586,63.5715011 130.597293,63.7695896 126.273502,64.2598413 L58.8235294,118.642857 Z" id="Path-67" fill="#571FCD"></path>
            <polygon id="Path-68" fill="#571FCD" points="101.960784 97.213006 113.550808 95.0714286 115.669131 115.234559 119.314747 120.199401 145.030823 132.625714 152.941176 131.510485 141.05245 139.857143 135.746626 139.857143 105.849303 124.786589 102.858494 119.91337"></polygon>
            <polygon id="Path-69" fill="#3B1091" points="121.568627 38.4024838 130.534912 36.1428571 185.118844 56.2926089 192.229087 63.5054221 200 119.951733 194.517026 134.357143 196.08302 121.126061 189.768623 64.9969582 183.012885 56.7774117 130.534912 37.3565532"></polygon>
        </g>
    </g>
</svg>