<?xml version="1.0" encoding="UTF-8"?>
<svg width="420px" height="420px" viewBox="0 0 420 420" version="1.1" xmlns="http://www.w3.org/2000/svg" xmlns:xlink="http://www.w3.org/1999/xlink">
    <title>Group 16</title>
    <defs>
        <linearGradient x1="70.610326%" y1="39.1636284%" x2="29.509331%" y2="60.8363716%" id="linearGradient-1">
            <stop stop-color="#F5F5F5" offset="0%"></stop>
            <stop stop-color="#E7E7E7" offset="100%"></stop>
        </linearGradient>
        <linearGradient x1="50%" y1="0%" x2="50%" y2="100%" id="linearGradient-2">
            <stop stop-color="#FFE287" offset="0%"></stop>
            <stop stop-color="#FEC14F" offset="100%"></stop>
        </linearGradient>
        <linearGradient x1="50%" y1="0%" x2="50%" y2="100%" id="linearGradient-3">
            <stop stop-color="#EDEBE6" offset="0%"></stop>
            <stop stop-color="#DFDEDD" offset="100%"></stop>
        </linearGradient>
        <linearGradient x1="65.7298133%" y1="19.5902587%" x2="44.6325622%" y2="100%" id="linearGradient-4">
            <stop stop-color="#FAF8FD" offset="0%"></stop>
            <stop stop-color="#FFFFFF" offset="50.0338895%"></stop>
            <stop stop-color="#E3E1DA" offset="100%"></stop>
        </linearGradient>
        <radialGradient cx="94.3530139%" cy="-11.2997657%" fx="94.3530139%" fy="-11.2997657%" r="107.971064%" gradientTransform="translate(0.943530,-0.112998),scale(1.000000,0.622708),rotate(114.254227),scale(1.000000,0.859626),translate(-0.943530,0.112998)" id="radialGradient-5">
            <stop stop-color="#FFE592" offset="0%"></stop>
            <stop stop-color="#FFD879" offset="53.1736%"></stop>
            <stop stop-color="#FEC759" offset="100%"></stop>
        </radialGradient>
        <radialGradient cx="100%" cy="10.0884649%" fx="100%" fy="10.0884649%" r="298.298405%" gradientTransform="translate(1.000000,0.100885),scale(1.000000,0.257299),rotate(96.687696),translate(-1.000000,-0.100885)" id="radialGradient-6">
            <stop stop-color="#565BDC" offset="0%"></stop>
            <stop stop-color="#2529AB" offset="46.2929039%"></stop>
            <stop stop-color="#06126D" offset="100%"></stop>
        </radialGradient>
        <linearGradient x1="50%" y1="0%" x2="50%" y2="100%" id="linearGradient-7">
            <stop stop-color="#FFE287" offset="0%"></stop>
            <stop stop-color="#FEC14F" offset="100%"></stop>
        </linearGradient>
        <linearGradient x1="50%" y1="0%" x2="50%" y2="100%" id="linearGradient-8">
            <stop stop-color="#EDEBE6" offset="0%"></stop>
            <stop stop-color="#DFDEDD" offset="100%"></stop>
        </linearGradient>
        <radialGradient cx="50%" cy="0%" fx="50%" fy="0%" r="98.9375185%" gradientTransform="translate(0.500000,0.000000),scale(0.809388,1.000000),rotate(112.971275),translate(-0.500000,-0.000000)" id="radialGradient-9">
            <stop stop-color="#FBF8F2" offset="0%"></stop>
            <stop stop-color="#F6F2FC" offset="75.1204681%"></stop>
            <stop stop-color="#F5EEE1" offset="100%"></stop>
        </radialGradient>
        <radialGradient cx="88.0047103%" cy="47.5591044%" fx="88.0047103%" fy="47.5591044%" r="149.905242%" gradientTransform="translate(0.880047,0.475591),scale(1.000000,0.800683),rotate(-148.885288),scale(1.000000,0.942681),translate(-0.880047,-0.475591)" id="radialGradient-10">
            <stop stop-color="#FCF3AC" offset="0%"></stop>
            <stop stop-color="#FEBF4C" offset="37.5941165%"></stop>
            <stop stop-color="#FEC14F" offset="100%"></stop>
        </radialGradient>
        <linearGradient x1="64.7008335%" y1="-8.55191167%" x2="39.9107462%" y2="50%" id="linearGradient-11">
            <stop stop-color="#FFE183" offset="0%"></stop>
            <stop stop-color="#FEBF4C" offset="100%"></stop>
        </linearGradient>
        <linearGradient x1="50%" y1="-11.5736565%" x2="0%" y2="-11.5736565%" id="linearGradient-12">
            <stop stop-color="#FFE183" offset="0%"></stop>
            <stop stop-color="#FEBF4C" offset="100%"></stop>
        </linearGradient>
        <linearGradient x1="45.1382966%" y1="0.598679349%" x2="53.2439486%" y2="39.2115143%" id="linearGradient-13">
            <stop stop-color="#FFE183" offset="0%"></stop>
            <stop stop-color="#FEBF4C" offset="100%"></stop>
        </linearGradient>
        <linearGradient x1="70.4869825%" y1="53.3776913%" x2="61.5002368%" y2="35.3510773%" id="linearGradient-14">
            <stop stop-color="#253078" offset="0%"></stop>
            <stop stop-color="#3234C6" offset="100%"></stop>
        </linearGradient>
        <linearGradient x1="54.2002952%" y1="31.365299%" x2="41.2049359%" y2="52.6657356%" id="linearGradient-15">
            <stop stop-color="#2E33B2" offset="0%"></stop>
            <stop stop-color="#253078" offset="100%"></stop>
        </linearGradient>
        <radialGradient cx="50%" cy="0%" fx="50%" fy="0%" r="100%" gradientTransform="translate(0.500000,0.000000),scale(0.996807,1.000000),rotate(90.000000),translate(-0.500000,-0.000000)" id="radialGradient-16">
            <stop stop-color="#253078" offset="0%"></stop>
            <stop stop-color="#253078" offset="100%"></stop>
        </radialGradient>
        <radialGradient cx="50%" cy="0%" fx="50%" fy="0%" r="112.135262%" gradientTransform="translate(0.500000,0.000000),scale(0.695624,1.000000),rotate(90.000000),scale(1.000000,1.155788),translate(-0.500000,-0.000000)" id="radialGradient-17">
            <stop stop-color="#3937DE" offset="0%"></stop>
            <stop stop-color="#253078" offset="100%"></stop>
        </radialGradient>
        <radialGradient cx="50%" cy="0%" fx="50%" fy="0%" r="320.830338%" gradientTransform="translate(0.500000,0.000000),scale(1.000000,0.311691),rotate(90.000000),translate(-0.500000,-0.000000)" id="radialGradient-18">
            <stop stop-color="#3536CC" offset="0%"></stop>
            <stop stop-color="#020E64" offset="100%"></stop>
        </radialGradient>
        <linearGradient x1="47.1259013%" y1="30.5262259%" x2="51.4183236%" y2="71.6749297%" id="linearGradient-19">
            <stop stop-color="#2E33A5" offset="0%"></stop>
            <stop stop-color="#020E64" offset="100%"></stop>
        </linearGradient>
        <linearGradient x1="50%" y1="0%" x2="50%" y2="100%" id="linearGradient-20">
            <stop stop-color="#EEEEEE" offset="0%"></stop>
            <stop stop-color="#D8D8D8" offset="100%"></stop>
        </linearGradient>
        <linearGradient x1="50%" y1="0%" x2="50%" y2="100%" id="linearGradient-21">
            <stop stop-color="#FAEB00" offset="0%"></stop>
            <stop stop-color="#F3D200" offset="100%"></stop>
        </linearGradient>
        <linearGradient x1="17.2624596%" y1="18.7139748%" x2="95.2264628%" y2="75.8620377%" id="linearGradient-22">
            <stop stop-color="#C774FA" offset="0%"></stop>
            <stop stop-color="#9F4BF9" offset="43.3397621%"></stop>
            <stop stop-color="#9540F3" offset="100%"></stop>
        </linearGradient>
    </defs>
    <g id="Page-2" stroke="none" stroke-width="1" fill="none" fill-rule="evenodd">
        <g id="Group-16">
            <path d="M8.18458007,107.584402 C63.2085919,110.669809 109.064857,124.612568 145.753374,149.412678 C182.441891,174.212788 213.665283,213.035909 239.423548,265.882043" id="Path-62" stroke="#350D81" stroke-width="4"></path>
            <path d="M209.792589,304.080593 C226.246942,272.355802 251.310274,249.930266 284.982584,236.803986 C318.654894,223.677705 361.082723,221.513291 412.26607,230.310742" id="Path-63" stroke="#350D81" stroke-width="4"></path>
            <path d="M3.46199204,329.936351 L416.123185,329.936351 L416.123185,393.880338 C413.472585,401.420784 410.711948,406.583651 407.841275,409.368939 C404.970602,412.154227 400.138663,414.376124 393.345459,416.034627 L34.1871544,416.034627 C24.2599023,416.034627 17.0296325,414.157769 12.4963449,410.404053 C7.96305729,406.650337 4.95160634,399.719857 3.46199204,389.612613 L3.46199204,329.936351 Z" id="Path-58" fill="#9D47F6"></path>
            <ellipse id="Oval" fill="#5127A4" cx="115.5" cy="381.5" rx="94.5" ry="14.5"></ellipse>
            <polygon id="Path-59" fill="#5416CC" points="7.99802205 329.936351 7.99802205 346.793775 412.00698 346.793775 416.123185 329.936351"></polygon>
            <g id="Body" transform="translate(129.228027, 318.192963) rotate(2.000000) translate(-129.228027, -318.192963) translate(55.309504, 246.625785)">
                <g id="Group" transform="translate(107.749800, 108.396378) rotate(-28.000000) translate(-107.749800, -108.396378) translate(90.816023, 86.035999)">
                    <path d="M1.34960414,8.2346456 C2.72979378,2.93655324 6.60811376,0.194618479 12.9845641,0.00884132832 C19.3610144,-0.176935822 23.4826944,2.56499894 25.3496041,8.2346456 L25.3496041,32.4297505 C21.5546558,35.6718827 17.4122139,37.1890399 12.9222786,36.9812223 C8.43234334,36.7734046 4.57478518,35.2562473 1.34960414,32.4297505 L1.34960414,8.2346456 Z" id="Rectangle" fill="#322D2E"></path>
                    <path d="M1.42221132,29.0000497 C0.379878644,32.5950417 -0.0895131175,35.8751676 0.0140360385,38.8404274 C0.117585194,41.8056873 0.757647167,43.4129168 1.93422196,43.6621158 C5.00171287,44.2159727 8.2189426,44.5195245 11.5859111,44.5727713 C13.9374049,44.6099589 16.9622922,44.8330617 20.8875654,44.6486482 C22.0176318,44.5955565 23.8973087,44.3963508 26.5265962,44.0510311 C31.5004083,43.4604201 33.9467429,42.0032984 33.8655998,39.679666 C33.7438853,36.1942173 26.736497,34.9713808 26.1898926,34.4091003 C25.8254896,34.0342467 25.5461329,32.2158996 25.3518224,28.9540592 L1.42221132,29.0000497 Z" id="Path-8" fill="url(#linearGradient-1)"></path>
                    <line x1="1.38741135" y1="25.4112533" x2="25.2314199" y2="25.4632139" id="Path-13" stroke="#FFAB27"></line>
                </g>
                <g id="Group-4" transform="translate(23.872454, 11.902006)">
                    <g id="Group-12" transform="translate(95.034695, 24.577142) rotate(7.000000) translate(-95.034695, -24.577142) translate(68.528283, 3.070008)">
                        <path d="M11.3397776,25.6642205 L10.8659727,12.6049559 C13.1988679,7.42773987 16.7489858,4.92128314 21.5163264,5.08558568 C26.2836671,5.24988822 29.8845602,8.00279877 32.3190057,13.3443173 L32.7928106,26.403582 C35.1745445,38.0119815 31.8785026,43.6615436 22.9046849,43.3522682 C13.9308671,43.0429928 10.0758981,37.1469769 11.3397776,25.6642205 Z" id="Path-141" fill="url(#linearGradient-2)" transform="translate(22.204054, 24.221156) rotate(-297.000000) translate(-22.204054, -24.221156) "></path>
                        <path d="M27.9551946,6.9897295 C27.7383907,1.38545181 31.9420564,8.06959992 38.9367929,8.32862368 C45.9315294,8.58764744 49.5476542,0.0841422041 49.8461601,7.80037907 C50.144666,15.5166159 49.9859167,24.7569566 39.6995395,24.3760393 C29.4131623,23.9951221 28.1719985,12.5940072 27.9551946,6.9897295 Z" id="Path-141" fill="url(#linearGradient-3)" transform="translate(38.932729, 14.471647) rotate(-120.000000) translate(-38.932729, -14.471647) "></path>
                        <path d="M13.6127092,15.9467806 L23.9648397,35.338322 C13.3728937,43.559629 6.02800824,43.6010315 1.93018326,35.4625296 C-2.16764171,27.3240276 1.72653362,20.818778 13.6127092,15.9467806 Z" id="Path-19" fill="#F3EDDA"></path>
                    </g>
                    <g id="Group-9" transform="translate(0.000000, 10.126614)">
                        <path d="M16.6012996,10.365729 C21.4063857,3.455243 31.8384804,0 47.8975839,0 C63.9566873,0 74.3887821,3.455243 79.1938681,10.365729 C82.2286593,23.5466104 83.7460549,34.1887589 83.7460549,42.2921743 C83.7460549,54.4472974 86.0975133,64.027186 79.1938681,75.0478779 C72.290223,86.0685697 66.8925197,85.3428313 54.9155385,88.316011 C42.9385573,91.2891907 34.1159851,89.9745276 32.5339534,89.9745276 C28.774177,89.9745276 37.843204,82.239497 41.2589781,78.7795403 C47.9084827,72.0440253 55.3429665,66.1536783 54.9155385,59.706599 C53.9450494,45.068294 36.4812025,42.7241842 28.7404644,32.7557036 C23.5799724,26.1100498 19.5335841,18.646725 16.6012996,10.365729 Z" id="Path-11" stroke="#EFEFF5" stroke-width="1.40196285" fill="url(#linearGradient-4)"></path>
                        <path d="M23.3227947,93.1624759 C32.9024096,92.0937095 39.9130477,88.2663513 44.3547389,81.6803998 C58.3028839,60.9986563 56.7433502,50.4265676 53.3684293,35.7520954 C51.1531947,26.1200131 44.3547389,7.86705352 41.3501754,7.86705352 C41.3501754,7.86705352 35.8418191,7.86705352 24.8250765,7.86705352 L11.3045409,11.1476467 C3.29237672,29.7376741 0.788568833,46.1406399 3.79313229,60.3565442 C6.79769574,74.5724485 13.3075932,85.5077579 23.3227947,93.1624759 Z" id="Path-141" fill="url(#radialGradient-5)" fill-rule="nonzero"></path>
                        <path d="M1.2821484,53.0669611 C16.0675422,65.1919602 32.4290633,71.2845721 50.3667117,71.3447968 C68.30436,71.4050214 79.3562222,66.7537717 83.5222981,57.3910475 C83.6806537,47.573335 83.516493,40.1317298 83.0298157,35.0662319 C82.5431385,30.000734 81.3837424,22.1754264 79.5516274,11.5903091 C65.4977873,14.9122091 54.82803,15.9743183 47.5423553,14.7766366 C40.2566806,13.5789549 29.9429954,11.8052444 16.6012996,9.45550521 C14.1700686,10.0821911 12.5658364,10.7937924 11.788603,11.5903091 C7.7303123,15.7492872 5.95521934,22.4589997 4.4701054,29.5451118 C2.55835367,38.6668946 1.49570134,46.5075111 1.2821484,53.0669611 Z" id="Path-15" fill="#F3EDDA"></path>
                        <path d="M6.2194907,30.5183142 C15.2628635,26.0730693 31.8250275,24.1510814 42.4313805,31.7667305 C53.0377334,39.3823795 54.0034571,46.9832623 58.6255468,50.5147647 C66.2717273,56.3568202 74.5900826,58.6359548 83.5806126,57.3521685 C82.9247125,59.2782753 82.273044,60.6499019 81.6256072,61.4670482 C79.1202839,64.6290799 75.4208327,66.8515106 72.0573091,68.1859107 C65.0562859,70.9634047 57.8613508,72.3199015 43.8219137,71.586392 C29.7824766,70.8528826 31.2826754,69.5852473 20.1466805,65.4737694 C12.722684,62.7327841 6.43450662,58.5971813 1.2821484,53.0669611 C-1.45520526,40.9980265 0.190575508,33.4818109 6.2194907,30.5183142 Z" id="Path-16" fill="#FAE047"></path>
                        <path d="M6.13537835,57.2867442 C19.6272386,65.9984713 33.2907258,70.1127685 47.1258399,69.6296357 C60.960954,69.1465028 73.4873617,65.5371052 84.705063,58.8014426 C84.7469049,79.7617399 71.9470397,90.6896002 46.3054674,91.5850237 C20.6638952,92.4804471 7.27386548,81.0476873 6.13537835,57.2867442 Z" id="Path-4" fill="#322D2E"></path>
                    </g>
                </g>
                <path d="M34.7343299,108.636854 C36.5033115,109.602171 37.9958897,109.707752 39.2120645,108.953599 C40.4282393,108.199445 41.0363267,107.038049 41.0363267,105.469409 C41.0363267,104.564425 40.7046426,103.599108 40.0412746,102.57346 L40.0412746,102.57346 L39.7925115,102.482961 L38.7974594,101.487478 L38.8803804,101.487478 C38.272293,101.00482 37.6365653,100.310999 36.9731972,99.4060146 C35.7017417,97.8373752 34.5961283,95.9821574 33.6563568,93.8403613 C32.7165854,91.6985651 31.942656,89.4059383 31.3345686,86.9624807 C30.7264812,84.5190231 30.2842358,81.9699841 30.0078324,79.3153635 C29.731429,76.6607429 29.5932274,74.0061224 29.5932274,71.3515018 C29.5932274,68.2745553 29.7728895,65.3333563 30.1322139,62.527905 C30.4915383,59.7224538 31.0305249,57.1734147 31.7491736,54.8807879 C32.523103,52.1055027 33.3799535,49.8581251 34.3197249,48.1386549 C35.2594963,46.4191848 36.2821888,44.6242993 37.3878022,42.7539984 L37.3878022,42.7539984 L39.7095905,39.2245597 C40.3729586,37.4749235 40.3176779,36.0118655 39.5437485,34.835386 C38.7698191,33.6589064 37.7471266,33.0706666 36.4756711,33.0706666 C35.2594963,33.0706666 34.1538829,33.5231588 33.1588308,34.428143 C31.2240072,37.5654219 29.4688458,40.5066208 27.8933467,43.2517398 C26.3178475,45.9968588 25.0049315,48.99839 23.9545987,52.2563334 C23.1253886,55.1522831 22.4896609,58.1839805 22.0474155,61.3514255 C21.6051701,64.5188705 21.3840474,67.7617308 21.3840474,71.0800065 C21.3840474,76.9925705 22.171797,82.8900514 23.7472962,88.7724493 C25.3227954,94.6548471 27.6307635,99.8886729 30.6712005,104.473927 C31.0028845,105.016917 31.3898492,105.514659 31.8320946,105.967151 C32.27434,106.419643 32.7165854,106.857052 33.1588308,107.279378 C33.4352341,107.520707 33.6839972,107.73187 33.9051199,107.912867 C34.1262425,108.093864 34.3473652,108.305027 34.5684879,108.546356 L34.5684879,108.546356 L34.7343299,108.636854 Z" id="back" fill="url(#radialGradient-6)" fill-rule="nonzero"></path>
                <g id="Group" transform="translate(48.378283, 115.246230) rotate(31.000000) translate(-48.378283, -115.246230) translate(31.444506, 92.885851)">
                    <path d="M1.34960414,8.2346456 C2.72979378,2.93655324 6.60811376,0.194618479 12.9845641,0.00884132832 C19.3610144,-0.176935822 23.4826944,2.56499894 25.3496041,8.2346456 L25.3496041,32.4297505 C21.5546558,35.6718827 17.4122139,37.1890399 12.9222786,36.9812223 C8.43234334,36.7734046 4.57478518,35.2562473 1.34960414,32.4297505 L1.34960414,8.2346456 Z" id="Rectangle" fill="#322D2E"></path>
                    <path d="M1.42221132,29.0000497 C0.379878644,32.5950417 -0.0895131175,35.8751676 0.0140360385,38.8404274 C0.117585194,41.8056873 0.757647167,43.4129168 1.93422196,43.6621158 C5.00171287,44.2159727 8.2189426,44.5195245 11.5859111,44.5727713 C13.9374049,44.6099589 16.9622922,44.8330617 20.8875654,44.6486482 C22.0176318,44.5955565 23.8973087,44.3963508 26.5265962,44.0510311 C31.5004083,43.4604201 33.9467429,42.0032984 33.8655998,39.679666 C33.7438853,36.1942173 26.736497,34.9713808 26.1898926,34.4091003 C25.8254896,34.0342467 25.5461329,32.2158996 25.3518224,28.9540592 L1.42221132,29.0000497 Z" id="Path-8" fill="#EDEDED"></path>
                    <line x1="1.38741135" y1="25.4112533" x2="25.2314199" y2="25.4632139" id="Path-13" stroke="#FFAB27"></line>
                </g>
                <path d="M89.3765211,36.718847 C92.1425,36.4419059 94.4415589,36.1616214 96.273698,35.8779936 C98.1058371,35.5943658 100.647647,35.1252501 103.899129,34.4706466 C104.704412,38.5720926 105.329815,42.1223701 105.77534,45.1214789 C106.220864,48.1205877 106.788202,52.5994083 107.477353,58.5579406 C104.099075,52.4254505 101.40261,47.9466299 99.3879586,45.1214789 C97.3733067,42.2963278 94.0361609,39.4954505 89.3765211,36.718847 Z" id="Path-18" fill="#FAE047"></path>
                <path d="M0.22656275,39.6845339 C-1.74541205,45.5859472 9.37310712,34.9726317 25.0947848,40.3019047 C40.8164625,45.6311777 43.0169504,36.9027131 55.5553697,46.8812334 C68.0937891,56.8597536 86.4599413,53.763914 92.7890866,45.6311777 C99.1182318,37.4984414 104.141671,37.094622 109.415757,27.6434624 C114.689844,18.1923029 110.015558,10.0357161 108.232832,5.32619821 C106.450106,0.616680288 106.632875,-1.65409317 93.7690705,1.37314733 C80.905266,4.40038783 79.5628713,10.9975186 69.1084839,14.5333353 C58.6540964,18.069152 54.8579794,16.7997481 46.3388901,17.4146825 C37.8198008,18.0296169 30.6228551,12.2496843 20.4186601,18.6464479 C10.2144651,25.0432115 2.19853755,33.7831207 0.22656275,39.6845339 Z" id="Path-1183" fill="#9C33FF"></path>
            </g>
            <g id="arm" transform="translate(135.476999, 304.293441) rotate(-101.000000) translate(-135.476999, -304.293441) translate(125.476999, 280.793441)">
                <path d="M0.41826397,25.5300862 L1.23689408,7.9163288 C2.78288858,3.003084 5.66761317,0.546461606 9.89106785,0.546461606 C14.1145225,0.546461606 17.0135275,3.49486376 18.5880827,9.39166805 L19.314739,24.7750196 C20.9823239,35.1640635 17.8411002,40.3585854 9.89106785,40.3585854 C1.94103551,40.3585854 -1.21656578,35.4157524 0.41826397,25.5300862 Z" id="Path-141" fill="url(#linearGradient-7)"></path>
                <path d="M0.144404535,29.4079526 C0.144404535,23.6002042 3.72781976,30.3754165 10.0722023,30.3754165 C16.4165848,30.3754165 20,21.4115675 20,29.4079526 C20,37.4043378 19.531109,47 10.2011347,47 C0.871160426,47 0.144404535,35.2157011 0.144404535,29.4079526 Z" id="Path-141" fill="url(#linearGradient-8)"></path>
                <path d="M0.499447439,17.887885 L19.2885961,17.887885 C19.486233,10.5795191 18.8903727,5.776938 17.5010152,3.48014185 C16.1116576,1.18334569 13.606034,0.0232984115 9.98414428,-2.27373675e-13 C6.52957419,0.0232984115 4.0699785,1.18334569 2.60535723,3.48014185 C1.14073596,5.776938 0.438766025,10.5795191 0.499447439,17.887885 Z" id="Path-27" fill="#F3EDDA"></path>
            </g>
            <g id="LeftSide-Head" transform="translate(104.040464, 200.867318) rotate(-17.000000) translate(-104.040464, -200.867318) translate(23.832784, 107.364842)">
                <g id="Face" transform="translate(38.459234, 83.080393)">
                    <path d="M33.2493088,92.2533152 C45.8831583,95.2115296 56.5613191,96.6925594 65.2837913,96.6964045 C74.0062635,96.7002372 82.1266645,95.5227464 89.6449943,93.1639321 C107.387778,86.5225747 116.256598,77.3732506 116.251453,65.7159596 C116.243731,48.2300232 96.8475588,56.8494576 98.651035,54.1928627 C99.8533525,52.4217994 101.205406,49.1744751 102.707195,44.4508896 C97.5830718,19.6463406 81.937302,7.23830536 55.7698854,7.2267839 C16.5187604,7.20951594 5.7047463,38.6505219 5.7115865,54.1519585 C5.71615096,64.4862496 8.57820628,75.1170637 14.2977525,86.0444009 L33.2493088,92.2533152 Z" id="Path-3" stroke="#EBECF5" stroke-width="2.47322764" fill="url(#radialGradient-9)" transform="translate(60.981520, 51.961594) rotate(-8.000000) translate(-60.981520, -51.961594) "></path>
                    <path d="M57.2928524,18.5870579 C70.5159033,31.1003759 80.8288047,48.8550533 55.5298197,63.5525726 C52.164737,65.5075272 50.2422934,69.0523628 49.7624888,74.1870795 C50.5385551,88.0930107 45.1206121,94.8033866 33.5086597,94.3182074 C16.0907311,93.5904386 13.0959675,91.7674491 9.40323038,88.2518524 C5.71049328,84.7362557 7.30702351,71.841905 6.72484124,59.9990591 C6.14265898,48.1562132 0.191905541,43.0113514 5.00284427,32.0615551 C9.813783,21.1117588 33.6397452,-3.79649474 57.2928524,18.5870579 Z" id="Path-2" fill="url(#radialGradient-10)"></path>
                </g>
                <g id="LeftSide-LeftEar" transform="translate(97.579623, 32.787395)">
                    <path d="M2.83757751,40.6399405 C8.59497858,28.4064887 13.3042159,19.9569295 16.9652895,15.2912628 C20.4445907,10.8572466 24.4888767,0 34.4709152,0 C41.9915222,0 43.9849287,4.20582942 47.2389581,14.0841829 C50.3908436,23.6524552 52.6460678,38.6122003 51.6790962,51.9060194 C51.335975,56.6232115 50.3270263,86.2255043 41.1842244,87.3136962 C32.0414225,88.401888 9.61740376,73.9315256 6.06676882,69.6098578 C-0.743802032,61.3203476 -1.82019914,51.6637085 2.83757751,40.6399405 Z" id="Path-6" fill="url(#linearGradient-11)"></path>
                    <path d="M30.2857037,54.7225392 C38.6471158,67.8588207 43.3563532,69.3341405 44.4134157,59.1484988 C44.6817399,56.5629811 44.4875062,53.2259113 44.4134157,49.4918596 C44.3145142,44.5073706 43.5439043,35.3246664 42.101586,21.943747 C41.3601661,13.0505404 39.6205462,8.20767208 36.8827263,7.41514205 C32.7759965,6.226347 30.9118725,10.4711534 27.4601613,17.7054226 C25.1590205,22.5282687 22.4680277,30.307228 19.387183,41.0423004 C23.0292172,38.5900072 25.72021,38.4558872 27.4601613,40.6399405 C28.4261538,41.8524911 24.9679215,46.7319098 25.4419167,49.4918596 C25.5961478,50.3899071 30.3319764,48.3938875 31.4966504,49.4918596 C31.9947833,49.961464 31.5911344,51.7050239 30.2857037,54.7225392 Z" id="Path-10" fill="#FFB4AA"></path>
                    <g id="InnerEar" transform="translate(24.879768, 14.888903)">
                        <polyline id="Path-7" stroke="#E6A198" stroke-width="3.6361598" points="1.36944621 19.3132782 10.2497223 -9.81891168e-13 15.0935093 21.325078"></polyline>
                        <ellipse id="Oval" fill="#E6A198" cx="14.9101155" cy="21.2368137" rx="1.26356911" ry="1.25953422"></ellipse>
                        <ellipse id="Oval" fill="#E6A198" cx="1.26356911" cy="19.7253726" rx="1.26356911" ry="1.25953422"></ellipse>
                    </g>
                </g>
                <path d="M97.2425288,91.4320799 C99.3436245,102.775474 102.382,110.755613 106.357655,115.372498 C110.33331,119.989382 119.448437,125.689482 133.703034,132.472796 C136.420784,131.121221 138.27023,129.347857 139.251372,127.152703 C140.232514,124.957549 140.760927,121.410821 140.836612,116.512518 C137.401926,108.912385 132.382002,102.832279 125.776838,98.2721993 C119.171673,93.7121197 109.660237,91.4320799 97.2425288,91.4320799 Z" id="Path-5" fill="url(#linearGradient-12)"></path>
                <g id="Group-2" transform="translate(44.444253, 89.191075) rotate(-29.000000) translate(-44.444253, -89.191075) translate(17.762810, 45.652053)">
                    <path d="M49.2568871,34.7778045 C55.0406942,50.9967826 54.7140961,62.5723937 48.2770927,69.5046379 C38.6215876,79.9030043 17.8703583,91.2215039 8.76746529,85.5710489 C-0.335427672,79.9205938 -2.56957281,77.5510629 3.09894624,41.4611261 C8.76746529,5.37118937 16.5155808,1.16350309 21.4497685,0.199623908 C26.3839562,-0.764255274 34.4144975,1.34784492 40.6191438,15.7971711 C44.7555746,25.4300552 47.6348223,31.756933 49.2568871,34.7778045 Z" id="Path-20" fill="url(#linearGradient-13)"></path>
                    <path d="M25.9811675,4.75088493 C30.5220181,11.6426582 33.9409397,22.2382196 36.2379324,36.5375691 C36.5522643,38.4943635 31.4249595,34.4439206 29.2197659,36.5375691 C26.1224324,39.4782306 31.6118115,44.4205041 30.5694133,45.8942194 C29.9928388,46.7093655 27.3877739,43.4199344 24.6309648,44.5575551 C21.391811,45.8942194 23.8211763,49.3695466 23.8211763,50.706211 C23.8211763,51.4601514 20.7939923,54.0001724 14.7396241,58.326274 L14.7403918,58.3273503 C13.7395692,59.0412231 12.3495338,58.8086043 11.635661,57.8077816 C11.3548583,57.4141069 11.2098909,56.9396972 11.2226851,56.4563068 C11.5409005,44.7745758 12.5012285,35.2834456 14.1037151,27.9829174 C15.7650731,20.4141862 18.8835364,12.693551 23.4591052,4.82101162 L23.4592992,4.82112445 C23.8713592,4.11269108 24.7796986,3.872433 25.488132,4.28449301 C25.6863149,4.39976603 25.8550925,4.55939231 25.9812232,4.75084824 Z" id="Path-24" stroke="#FFB4AA" stroke-width="2.06102304" fill="#FFB4AA"></path>
                    <polyline id="Path-22" stroke="#E6A198" stroke-width="3.4610233" points="31.6220326 33.3181288 24.4286054 12.3588041 17.2061014 33.7434824"></polyline>
                    <circle id="Oval" fill="#E6A198" cx="31.6220326" cy="33.3181288" r="2"></circle>
                    <circle id="Oval" fill="#E6A198" cx="17.2061014" cy="33.7434824" r="2"></circle>
                </g>
                <g id="LeftEye" transform="translate(91.279282, 124.452973) rotate(-9.000000) translate(-91.279282, -124.452973) translate(76.800631, 114.039069)">
                    <ellipse id="Oval" fill="#253078" cx="15.8255018" cy="11.9016039" rx="8.7545329" ry="8.92620295"></ellipse>
                    <path d="M0.0133155292,9.11452821 C-0.261872073,4.07806982 3.72834816,1.11015684 11.9839762,0.210789274 C20.2396043,-0.688578296 25.7433564,1.29003036 28.4952324,6.14661523 C29.8711704,9.83402227 28.1741802,12.0374728 23.4042618,12.7569669 C18.6343433,13.4764609 13.5892373,11.3502998 8.26894361,6.37848344 L0.0133155292,9.11452821 Z" id="Path-9" fill="url(#linearGradient-14)"></path>
                </g>
                <g id="RightEye" transform="translate(120.589107, 112.319504)">
                    <path d="M16.27499,6.02447903 L23.2282114,7.61980764 C22.9884776,4.95567698 22.2498757,3.1219564 21.0124055,2.1186459 C20.4731961,1.68146808 19.9078642,1.20041961 19.1182487,0.896572909 C18.4365625,0.634257761 17.1365154,0.359374072 15.2181073,0.0719218428 C11.1144616,-0.199243492 7.67396476,0.296367677 4.89661684,1.55875535 C2.11926892,2.82114303 0.488808706,4.73945323 0.0052361943,7.31368596 C-0.0180243872,8.23046467 0.0362123444,8.87254324 0.167946389,9.23992167 C0.435973589,9.98739293 1.019469,10.5542737 1.6510498,11.0085474 C3.29686341,12.1923228 6.39807183,12.4945381 9.65792838,11.0085474 C11.8311661,10.0178869 14.0368533,8.35653075 16.27499,6.02447903 Z" id="Path-11" fill="url(#linearGradient-15)"></path>
                    <ellipse id="Oval" fill="url(#radialGradient-16)" cx="10.8157017" cy="10.1623358" rx="6.82327318" ry="6.80148477"></ellipse>
                </g>
                <g id="nose" transform="translate(132.034854, 128.298045)">
                    <ellipse id="Oval-2" fill="url(#radialGradient-17)" cx="11.3370381" cy="7.88631952" rx="11.3370381" ry="7.88631952"></ellipse>
                    <ellipse id="Oval-4" stroke="#F4F1EA" stroke-width="2.06102304" fill="#F4F1EA" cx="11.6349928" cy="4.59782798" rx="4.31887166" ry="2.13866292"></ellipse>
                </g>
                <path d="M53.196518,168.579105 C54.3398715,168.874502 55.1476634,169.31759 55.6199181,169.908384 C56.0921727,170.499178 56.3282965,171.139195 56.3282965,171.828455 C56.3282965,172.714645 55.9306143,173.514667 55.135238,174.228542 C54.3398618,174.942418 53.1716704,175.176271 51.6306288,174.930107 C49.9901652,174.63471 48.6355603,174.117773 47.5667734,173.379281 C46.4979865,172.640788 45.6529119,171.754611 45.0315241,170.720722 C44.4101364,169.686833 43.9751715,168.529879 43.7266164,167.249825 C43.4780614,165.969772 43.3537857,164.640506 43.3537857,163.261987 C43.3537857,161.588071 43.4780614,159.889565 43.7266164,158.166416 C43.9751715,156.443267 44.2237229,154.818609 44.472278,153.292391 C44.521989,152.947762 44.5841268,152.578521 44.6586934,152.184658 C44.7332599,151.790796 44.7953977,151.396939 44.8451088,151.003077 L43.7266164,150.338437 C42.9312402,149.846109 42.0985931,149.304556 41.2286503,148.713762 C40.3587075,148.122968 39.5633431,147.495259 38.8425333,146.830616 C38.1217236,146.165973 37.5252003,145.464416 37.0529456,144.725924 C36.580691,143.987432 36.3445672,143.224334 36.3445672,142.436609 C36.3445672,141.845815 36.5061256,141.205798 36.8292472,140.516539 C37.1523688,139.827279 37.6867542,139.088798 38.4324195,138.301073 C39.1283737,137.464115 40.0728689,136.725634 41.2659333,136.085607 C42.4589978,135.445581 43.5029135,134.904028 44.3977118,134.460933 C43.7514686,132.688551 43.2295107,130.89158 42.8318226,129.069966 C42.4341344,127.248352 42.2104382,125.303685 42.1607272,123.235906 C42.1110162,121.709689 42.3098573,120.158878 42.7572564,118.583428 C43.2046556,117.007978 43.9005994,115.604864 44.8451088,114.374043 C45.7896181,113.143223 46.9702371,112.207813 48.3870011,111.567787 C49.8037651,110.92776 51.4566317,110.755448 53.3456503,111.050845 C54.3895817,111.297009 55.1476634,111.727789 55.6199181,112.3432 C56.0921727,112.95861 56.3282965,113.610935 56.3282965,114.300194 C56.3282965,115.137152 55.9181868,115.90025 55.097955,116.589509 C54.2777232,117.278768 53.1468145,117.549545 51.705195,117.401846 C51.6554839,117.401846 51.5809185,117.414154 51.4814965,117.438771 C51.3820745,117.463387 51.3323642,117.451079 51.3323642,117.401846 C50.9843871,117.500312 50.6861254,117.808013 50.4375703,118.324957 C50.1890152,118.841902 49.9901741,119.408071 49.8410411,120.023481 C49.691908,120.638891 49.5800599,121.229676 49.5054934,121.795853 C49.4309269,122.362031 49.3936442,122.792812 49.3936442,123.088208 C49.3936442,125.008288 49.6670507,126.916031 50.2138719,128.811495 C50.7606931,130.706958 51.2826509,132.368541 51.7797611,133.796293 L52.1525919,134.60863 C52.401147,135.593287 52.3887194,136.44254 52.1153088,137.156416 C51.8418982,137.870292 51.2080922,138.498001 50.2138719,139.039562 L49.2445119,139.556504 C48.2502915,140.098065 47.343079,140.578078 46.5228472,140.996556 C45.7026154,141.415035 44.8948235,141.895048 44.0994472,142.436609 C44.7954015,143.125869 45.5162004,143.704346 46.2618657,144.172057 C47.007531,144.639769 47.7780402,145.07055 48.5734165,145.464412 L50.288438,146.424448 C51.1832363,147.064474 51.767332,147.642951 52.0407426,148.159896 C52.3141532,148.67684 52.4260014,149.304549 52.3762903,150.043042 L52.0034596,152.11081 C51.7051935,153.637027 51.3945043,155.36015 51.0713826,157.28023 C50.748261,159.20031 50.5867026,161.021896 50.5867026,162.745045 C50.5867026,164.960522 50.9098194,166.683645 51.5560626,167.914465 C51.8046177,168.160629 52.0780242,168.308325 52.3762903,168.357558 C52.6745564,168.406791 52.9479629,168.480639 53.196518,168.579105 Z" id="Path" stroke="url(#linearGradient-19)" stroke-width="2.06102304" fill="url(#radialGradient-18)"></path>
                <g id="Fang" transform="translate(97.188009, 146.977502)">
                    <path d="M3.96035856,0 L28.0955077,4.34469903 L35.6774027,5.03813687 C36.757995,11.1153083 36.3543461,15.4816936 34.466456,18.1372927 C33.2467782,19.8529514 31.5550072,21.8789679 28.0955077,23.650778 C26.8319606,24.2979137 24.272172,25.1470916 20.4161421,26.1983117 L11.6397242,25.7117003 C5.24025283,22.7897172 1.49199104,18.9546144 0.394938804,14.2063919 C-0.702113429,9.45816942 0.486359823,4.72270544 3.96035856,0 Z" id="Path-187" fill="#433630"></path>
                    <path d="M3.98628242,0 C9.16881576,1.12964859 13.125652,1.9386978 15.856791,2.42714763 C18.5879301,2.91559746 22.7288052,3.55478126 28.2794163,4.34469903 L32.144233,7.91692085 C35.5926296,12.0749029 36.3667039,15.4816936 34.466456,18.1372927 C33.2387944,19.8529514 31.7615611,21.8789679 28.2794163,23.650778 C27.0075982,24.2979137 24.4310537,25.1470916 20.5497828,26.1983117 L11.7159159,25.1638285 C5.27455467,22.6070933 1.50175737,18.9546144 0.397524009,14.2063919 C-0.706709349,9.45816942 0.489543455,4.72270544 3.98628242,0 Z" id="Path-187" fill="#BE7469"></path>
                    <path d="M5.05427643,0.503813687 C5.06064185,5.35047421 5.52395052,7.86591718 6.44420245,8.05014258 C7.36445437,8.23436799 8.75438039,6.07827402 10.6139805,1.58186067 C9.1811445,1.34377131 8.16186542,1.16409681 7.55614326,1.04283718 C6.9504211,0.921577545 6.11646549,0.741903048 5.05427643,0.503813687 Z" id="Path-186" fill="url(#linearGradient-20)"></path>
                    <path d="M2.52713821,18.8347786 C5.49252683,15.1725123 10.3069907,13.4329357 16.97053,13.6160491 C23.6340692,13.7991624 29.2651099,15.6421194 33.8636521,19.1449201 C31.7989581,21.4888891 30.1491087,22.9856101 28.9141039,23.6350832 C25.1039739,25.6387812 20.221378,26.283751 16.6927724,26.1894434 C11.4485384,26.0492829 6.72666029,23.597728 2.52713821,18.8347786 Z" id="Path-188" fill="#E7A190"></path>
                    <path d="M11.605579,25.4377644 C5.50971932,22.6984053 1.81525891,18.9546144 0.52219777,14.2063919 C-0.770863374,9.45816942 0.337474749,4.72270544 3.84721214,0 C11.10284,1.61594912 16.5267697,2.69893424 20.1190012,3.24895537 C23.7112327,3.7989765 28.9088767,4.34230359 35.7119332,4.87893665 C37.0049943,10.7319923 36.4508253,15.4847595 34.049426,19.1372384 C31.6480267,22.7897172 27.1223127,25.1434083 20.472284,26.1983117" id="Path-185" stroke="#253078" stroke-width="0.7"></path>
                </g>
                <ellipse id="Oval" fill="#FFC0A5" opacity="0.84329369" transform="translate(94.082711, 140.583115) rotate(-3.000000) translate(-94.082711, -140.583115) " cx="94.0827108" cy="140.583115" rx="11.3720225" ry="6.04581759"></ellipse>
            </g>
            <g id="Group-3" transform="translate(111.131206, 178.710414) rotate(-4.000000) translate(-111.131206, -178.710414) translate(42.589505, 121.825316)">
                <path d="M14.2880195,69.7257919 L9.54170115,79.6838287 C12.6159342,81.2760652 15.7036152,82.4857093 18.8047442,83.3127612 C21.9058732,84.139813 26.6478417,85.0182878 33.0306499,85.9481856 C44.949756,85.0705781 53.7011834,85.0705781 59.284932,85.9481856 C64.8686806,86.825793 70.8292138,89.1380973 77.1665315,92.8850984 C91.0636335,92.6180803 101.38846,91.9450018 108.141012,90.8658629 C114.893564,89.7867239 121.36046,87.7762831 127.541701,84.8345405 C126.068958,82.6620708 124.387253,80.9451669 122.496586,79.6838287 C120.605919,78.4224906 117.416081,76.8893976 112.927073,75.0845497 C108.183131,57.1018491 103.844409,45.3111216 99.9109072,39.7123671 C95.3216506,33.1802439 85.5821805,26.8453995 81.5736965,25.368203 C68.6712474,20.6134244 57.499201,19.6408328 48.0575572,22.450428 C37.2016282,25.9178159 28.7546721,31.6717956 22.7166889,39.7123671 C16.6787057,47.7529387 13.8691492,57.7574136 14.2880195,69.7257919 Z" id="Path-91" fill="#FFF200" transform="translate(68.541701, 56.885098) rotate(-24.000000) translate(-68.541701, -56.885098) "></path>
                <path d="M51.2825869,26.8590737 L86.4673694,59.6575099 L22.4594809,85.81139 L24.2012773,90.682616 L91.2870859,65.7884739 L116.49214,55.4579674 C100.755415,44.648896 88.5893348,37.408707 79.9938998,33.7374004 C71.3984648,30.0660938 61.8280272,27.7733182 51.2825869,26.8590737 Z" id="Path-94" fill="url(#linearGradient-21)"></path>
            </g>
            <polygon id="Path-109" fill="#3E484B" points="134.425945 167.921388 129 187.0988 148.299537 179.861357"></polygon>
            <circle id="Oval" stroke="#B0CBD4" stroke-width="2" fill="#FFFCC4" cx="144.405723" cy="170.5" r="9.5"></circle>
            <rect id="Rectangle" stroke="#350D81" stroke-width="8" x="4" y="4" width="412" height="412" rx="30"></rect>
            <g id="Group-17" transform="translate(197.307937, 82.141360)">
                <path d="M103.144538,97.8353439 L82.9714094,113.988054 L86.2862873,136.466299 L91.4682211,142.588754 L136.99101,166.155437 L151.309844,165.099541 L195.691715,134.67486 L198.920719,121.779758 L190.917358,64.9899469 L184.124694,56.7319184 L131.359887,36.0007575 L122.344594,38.2709632 L86.2862873,68.4815602 L53.7033348,96.2916355 L47.356992,96.9616282 L22.0786339,82.8586404 L20.5691448,78.7692203 L18.2419859,48.5421811 L20.5691448,44.9957831 L41.8235018,25.4430419 L73.0059891,38.2709632 L76.4484619,63.5143649 L95.6566925,47.0025999 C94.8862913,35.2167563 94.107568,28.030237 93.3205227,25.4430419 C92.5334773,22.8558468 90.4302555,20.5687639 87.0108572,18.5817931 L45.2546531,1.67533456 C42.7308817,0.653497516 39.8435705,1.18782236 37.852617,3.04515289 L2.52606732,36.0007575 L2.52606732,36.0007575 L0,43.1340048 L5.1386447,91.893013 L8.91980651,98.6059611 L51.0112463,120.902364 L59.1120365,119.078455 L127.083485,64.1143451 L135.508932,63.5143649 L166.148067,78.1770485 L172.271329,111.311886 L169.39266,120.902364 L142.306356,140.585832 L136.99101,140.585832 L107.040036,125.477694 L104.344516,120.902364 L103.144538,97.8353439 Z" id="Path-64" fill="url(#linearGradient-22)"></path>
                <polygon id="Path-65" fill="#571FCD" points="56.9944983 31.2379322 37.5537471 49.4437381 40.224365 80.9512672 58.9073295 91.6687079 53.7033348 96.2916355 47.356992 96.9616282 22.1081973 83.1133536 20.5691448 78.7692203 18.0556088 46.5745763 41.8235018 25.4430419"></polygon>
                <path d="M87.0108572,18.5817931 L102.882198,25.4430419 L106.245105,29.8365308 L108.365887,49.8588016 L90.7488372,64.9600168 L76.4484619,63.5143649 L95.6566925,47.0025999 C94.7966971,38.1143835 93.7135244,31.5231418 92.4071742,27.2288749 C91.1008241,22.9346079 89.3020518,20.0522473 87.0108572,18.5817931 Z" id="Path-66" fill="#3700BB"></path>
                <path d="M58.9073295,119.020323 C61.826173,118.600323 64.1764631,118.179699 65.9581998,117.75845 C67.7399364,117.337201 70.4406334,116.563642 74.0602908,115.437771 L138.183113,64.9600168 C137.646949,64.0912281 136.755556,63.6093441 135.508932,63.5143649 C134.262308,63.4193856 131.453826,63.619379 127.083485,64.1143451 L58.9073295,119.020323 Z" id="Path-67" fill="#571FCD"></path>
                <polygon id="Path-68" fill="#571FCD" points="103.144538 97.8353439 114.755361 95.6884256 116.877486 115.901841 120.529644 120.879065 146.291869 133.336369 154.216418 132.218358 142.306356 140.585832 136.99101 140.585832 107.040036 125.477694 104.043859 120.592321"></polygon>
                <polygon id="Path-69" fill="#3B1091" points="122.344594 38.2709632 131.359887 36.0007575 186.242164 56.2448458 193.39127 63.4914278 201.204657 120.202008 195.691715 134.67486 197.266267 121.381834 190.917358 64.9899469 184.124694 56.7319184 131.359887 37.2201358"></polygon>
            </g>
        </g>
    </g>
</svg>