<?xml version="1.0" encoding="UTF-8"?>
<svg width="135px" height="135px" viewBox="0 0 135 135" version="1.1" xmlns="http://www.w3.org/2000/svg" xmlns:xlink="http://www.w3.org/1999/xlink">
    <title>Artboard</title>
    <defs>
        <linearGradient x1="18.4961511%" y1="19.4766162%" x2="18.4961511%" y2="207.491774%" id="linearGradient-1">
            <stop stop-color="#FFFFFF" offset="0%"></stop>
            <stop stop-color="#1DA8F7" offset="100%"></stop>
        </linearGradient>
        <linearGradient x1="50%" y1="155.671049%" x2="50%" y2="34.5829767%" id="linearGradient-2">
            <stop stop-color="#FAD961" offset="0%"></stop>
            <stop stop-color="#FFFFFF" offset="100%"></stop>
        </linearGradient>
    </defs>
    <g id="Artboard" stroke="none" stroke-width="1" fill="none" fill-rule="evenodd">
        <g id="Python" transform="translate(2.000000, 0.000000)">
            <path d="M34.2455049,32.2765006 L65.5807275,32.2765006 L65.5807275,37.5552363 L22.6398669,37.5552363 C10.4615951,37.5552363 0.589154712,47.5339118 0.589154712,59.8432312 C0.589154712,62.9713706 0.589154712,66.0995106 0.589154712,69.2276501 C0.589154712,70.4068305 0.698717157,74.0038594 0.917841467,80.0187365 L0.917840887,80.0187365 C1.35435156,92.000786 11.0910994,101.48659 22.9536195,101.48659 L29.6032497,101.48659 L29.6032497,83.8908046 C29.6032497,74.49685 37.1374802,66.8815453 46.4314248,66.8815453 L81.2483388,66.8815453 C89.9013214,66.8815453 96.9159501,59.7914339 96.9159501,51.0453384 L96.9159501,17.0268199 C94.9816773,7.64240102 83.9563212,2.95019157 63.8398818,2.95019157 C43.7234424,2.95019157 33.8586501,7.64240102 34.2455049,17.0268199 L34.2455049,32.2765006 Z" id="path-12" fill="#000000" fill-rule="nonzero"></path>
            <path d="M34.2455049,32.2765006 L65.5807275,32.2765006 L65.5807275,37.5552363 L22.6398669,37.5552363 C10.4615951,37.5552363 0.589154712,47.5339118 0.589154712,59.8432312 C0.589154712,62.9713706 0.589154712,66.0995106 0.589154712,69.2276501 C0.589154712,70.4068305 0.698717157,74.0038594 0.917841467,80.0187365 L0.917840887,80.0187365 C1.35435156,92.000786 11.0910994,101.48659 22.9536195,101.48659 L29.6032497,101.48659 L29.6032497,83.8908046 C29.6032497,74.49685 37.1374802,66.8815453 46.4314248,66.8815453 L81.2483388,66.8815453 C89.9013214,66.8815453 96.9159501,59.7914339 96.9159501,51.0453384 L96.9159501,17.0268199 C94.9816773,7.64240102 83.9563212,2.95019157 63.8398818,2.95019157 C43.7234424,2.95019157 33.8586501,7.64240102 34.2455049,17.0268199 L34.2455049,32.2765006 Z" id="path-12" fill="#B4D0FF"></path>
            <path d="M68.4164782,65.6136654 L99.7517008,65.6136654 L99.7517008,70.892401 L56.8108402,70.892401 C44.6325684,70.892401 34.760128,80.8710765 34.760128,93.1803959 C34.760128,96.3085354 34.760128,99.4366754 34.760128,102.564815 C34.760128,103.743995 34.8696904,107.341024 35.0888147,113.355901 C35.5253248,125.337951 45.2620727,134.823755 57.1245928,134.823755 L63.774223,134.823755 L63.774223,117.227969 C63.774223,107.834015 71.3084535,100.21871 80.6023981,100.21871 L115.419312,100.21871 C124.072295,100.21871 131.086923,93.1285986 131.086923,84.3825032 L131.086923,50.3639847 C129.152651,40.9795658 118.127294,36.2873563 98.0108551,36.2873563 C77.8944157,36.2873563 68.0296234,40.9795658 68.4164782,50.3639847 L68.4164782,65.6136654 Z" id="path-15" fill="#FFE3B4" transform="translate(82.923526, 85.555556) scale(-1, -1) translate(-82.923526, -85.555556) "></path>
            <path d="M65.6907504,99.4214559 C71.7314269,94.1111111 78.5937094,91.4559387 86.2775978,91.4559387 C93.9614861,91.4559387 101.042532,94.1111111 107.520735,99.4214559 L65.6907504,99.4214559 Z" id="Path-2" fill="#FFC47B"></path>
            <path d="M22.9770338,38.6475096 C28.3760375,41.99106 34.7936395,43.6628352 42.2298397,43.6628352 C49.6660399,43.6628352 57.1917661,41.99106 64.8070183,38.6475096 L22.9770338,38.6475096 Z" id="Path-4" fill="#86AEEF"></path>
            <ellipse id="Oval-43" fill="url(#linearGradient-1)" fill-rule="nonzero" cx="47.7215316" cy="19.4712644" rx="5.89154712" ry="5.90038314"></ellipse>
            <ellipse id="Oval-43" fill="url(#linearGradient-2)" fill-rule="nonzero" cx="82.1870823" cy="118.302682" rx="5.89154712" ry="5.90038314"></ellipse>
            <line x1="93.2167529" y1="105.411181" x2="93.2167529" y2="114.660032" id="Path-5" stroke="#FFB252" stroke-width="0.5"></line>
            <line x1="38.7369223" y1="31.862069" x2="38.7369223" y2="23.6015326" id="Path-6" stroke="#1E87AD" stroke-width="0.5"></line>
        </g>
    </g>
</svg>